<svg version="1.1" id="Layer_1" xmlns="http://www.w3.org/2000/svg" xmlns:xlink="http://www.w3.org/1999/xlink" x="0px" y="0px"
	 width="100%" viewBox="0 0 287 287" enable-background="new 0 0 287 287" xml:space="preserve">
<path fill="#1D1D1D" opacity="1.000000" stroke="none" 
	d="
M193.000000,288.000000 
	C128.694473,288.000000 64.888954,288.000000 1.041713,288.000000 
	C1.041713,192.402832 1.041713,96.805649 1.041713,1.104229 
	C96.555397,1.104229 192.110947,1.104229 287.833252,1.104229 
	C287.833252,96.666428 287.833252,192.333191 287.833252,288.000000 
	C256.472504,288.000000 224.986252,288.000000 193.000000,288.000000 
M213.418839,207.518799 
	C215.645554,209.055298 217.872269,210.591782 220.098999,212.128281 
	C220.587158,211.533997 221.075333,210.939713 221.563492,210.345413 
	C198.914856,185.366959 176.266205,160.388504 153.617569,135.410049 
	C153.198990,135.610107 152.780411,135.810150 152.361832,136.010208 
	C152.467789,137.373322 152.573730,138.736450 152.592194,140.798065 
	C152.737473,142.200851 152.882751,143.603622 152.959366,145.938217 
	C153.281067,150.959122 153.602768,155.980011 153.805374,161.658966 
	C153.897141,162.761658 153.988922,163.864349 154.011215,165.886932 
	C154.319550,170.582336 154.627899,175.277740 154.791367,180.462296 
	C154.884827,181.298523 154.978287,182.134750 154.994186,183.885254 
	C155.297958,188.576324 155.601746,193.267380 155.770218,198.522064 
	C155.870941,199.671356 155.971649,200.820633 156.001358,202.801834 
	C156.092453,204.187775 156.183548,205.573700 156.171432,207.608337 
	C156.398636,208.633453 156.625839,209.658585 156.853043,210.683701 
	C157.228760,210.685349 157.604462,210.686996 157.980179,210.688644 
	C158.562729,209.445480 159.145279,208.202332 160.167160,206.402863 
	C164.205139,198.789505 168.361115,191.235428 172.228668,183.536453 
	C174.021851,179.966797 175.688202,179.490540 178.977173,181.993576 
	C187.802994,188.710464 196.867081,195.114243 206.211136,202.116257 
	C208.474869,203.743195 210.738586,205.370132 213.418839,207.518799 
M126.603165,126.509933 
	C126.904716,125.071312 127.463371,123.633583 127.468407,122.193924 
	C127.524216,106.209152 127.385628,90.222939 127.551476,74.239738 
	C127.603561,69.221130 125.610001,67.629181 120.699539,67.682121 
	C101.552887,67.888542 82.402687,67.757866 63.253860,67.786369 
	C61.880928,67.788414 60.508392,68.062523 59.135674,68.210136 
	C59.057156,68.575157 58.978634,68.940186 58.900116,69.305214 
	C61.517159,70.613266 64.134201,71.921326 67.254349,73.689804 
	C72.191719,76.415123 76.867264,79.890083 82.116196,81.723366 
	C97.079437,86.949554 104.285866,97.263054 107.052528,112.740982 
	C109.732101,127.731598 110.773659,127.545418 126.603165,126.509933 
M130.141037,165.606857 
	C129.964691,165.111053 129.788361,164.615234 129.478394,163.443726 
	C129.342560,163.005264 129.206741,162.566818 129.111725,161.577347 
	C128.832794,160.908188 128.553848,160.239044 128.214920,158.810425 
	C127.890091,157.584930 127.565254,156.359436 127.281395,154.394196 
	C126.959015,152.951721 126.786606,151.454865 126.286934,150.076660 
	C124.591354,145.399872 120.121666,142.592941 115.517464,143.179611 
	C110.568970,143.810181 107.492546,147.369858 106.960442,153.929077 
	C106.941246,166.716904 106.775307,179.506744 106.951584,192.291870 
	C107.081131,201.687698 113.332626,207.737823 122.713318,208.026962 
	C125.699997,208.119049 128.692520,208.092621 131.681030,208.041489 
	C141.164230,207.879272 145.929642,202.667664 145.369339,192.449814 
	C143.993225,190.084229 143.158325,186.968201 141.130768,185.505859 
	C136.606049,182.242508 133.572357,178.231384 131.826019,172.369003 
	C131.691605,171.955276 131.557190,171.541565 131.432297,170.493103 
	C131.178482,169.694321 130.924667,168.895538 130.520538,167.433167 
	C130.381302,167.001602 130.242081,166.570023 130.141037,165.606857 
M216.551056,110.379578 
	C215.825241,108.394295 215.538849,106.067108 214.302917,104.478745 
	C205.734406,93.466904 197.090103,82.508385 188.215164,71.742935 
	C183.682434,66.244690 177.313354,66.288460 172.860428,71.873566 
	C163.023560,84.211525 153.289688,96.643173 143.966751,109.368439 
	C142.329727,111.602875 142.897400,115.452553 142.678162,119.205338 
	C146.405045,124.908249 150.144226,126.166367 156.086945,123.266281 
	C162.785873,119.997185 169.459030,116.642860 175.934158,112.957924 
	C181.048264,110.047531 185.742706,109.733681 190.859634,112.900040 
	C194.508987,115.158257 198.467819,116.944099 202.377502,118.747887 
	C209.605484,122.082603 215.040344,119.077660 216.551056,110.379578 
z"/>
<path fill="#9B174C" opacity="1.000000" stroke="none" 
	d="
M216.401535,111.125488 
	C215.040344,119.077660 209.605484,122.082603 202.377502,118.747887 
	C198.467819,116.944099 194.508987,115.158257 190.859634,112.900040 
	C185.742706,109.733681 181.048264,110.047531 175.934158,112.957924 
	C169.459030,116.642860 162.785873,119.997185 156.086945,123.266281 
	C150.144226,126.166367 146.405045,124.908249 142.690460,118.482544 
	C143.726105,115.685898 144.448029,113.382942 145.821869,111.575523 
	C154.478012,100.187500 163.168045,88.821320 172.072678,77.627556 
	C177.604645,70.673492 182.684082,70.661942 188.656189,77.109711 
	C189.671509,78.205894 190.579239,79.402542 191.524124,80.562988 
	C199.818207,90.749168 208.109467,100.937668 216.401535,111.125488 
z"/>
<path fill="#9A174B" opacity="1.000000" stroke="none" 
	d="
M145.331619,193.163391 
	C145.929642,202.667664 141.164230,207.879272 131.681030,208.041489 
	C128.692520,208.092621 125.699997,208.119049 122.713318,208.026962 
	C113.332626,207.737823 107.081131,201.687698 106.951584,192.291870 
	C106.775307,179.506744 106.941246,166.716904 107.256531,153.251556 
	C115.015076,146.062378 120.122345,145.728363 124.720772,151.494492 
	C125.638649,152.645447 126.404480,153.917648 127.240417,155.133942 
	C127.565254,156.359436 127.890091,157.584930 128.257660,159.465576 
	C128.557251,160.789948 128.814072,161.459152 129.070908,162.128357 
	C129.206741,162.566818 129.342560,163.005264 129.508972,163.958862 
	C129.727310,165.028809 129.915085,165.583633 130.102844,166.138458 
	C130.242081,166.570023 130.381302,167.001602 130.548935,167.995331 
	C130.859131,169.414261 131.140945,170.271057 131.422760,171.127838 
	C131.557190,171.541565 131.691605,171.955276 131.818100,173.005676 
	C131.571991,183.436249 139.150543,187.815826 145.331619,193.163391 
z"/>
<path fill="#9B174C" opacity="1.000000" stroke="none" 
	d="
M125.960663,126.858170 
	C110.773659,127.545418 109.732101,127.731598 107.052528,112.740982 
	C104.285866,97.263054 97.079437,86.949554 82.116196,81.723366 
	C76.867264,79.890083 72.191719,76.415123 67.402222,73.291595 
	C69.509277,72.582924 71.467155,72.013023 73.427841,72.003220 
	C88.574104,71.927452 103.721107,71.913612 118.867439,71.981697 
	C125.032692,72.009407 125.992828,73.023979 126.007484,79.421570 
	C126.043694,95.233650 125.982628,111.045952 125.960663,126.858170 
z"/>
<path fill="#9B174C" opacity="1.000000" stroke="none" 
	d="
M154.936249,179.973145 
	C154.627899,175.277740 154.319550,170.582336 154.138840,165.178467 
	C154.152466,163.313644 154.038467,162.157288 153.924469,161.000916 
	C153.602768,155.980011 153.281067,150.959122 153.361145,145.513535 
	C155.851181,145.717957 157.939438,146.347076 160.245697,147.224182 
	C162.658615,149.963867 164.853485,152.455536 167.184875,155.228928 
	C168.223221,156.332886 169.125046,157.155136 170.286316,158.180817 
	C172.384506,160.567810 174.223267,162.751373 176.183014,165.248291 
	C177.874573,167.036743 179.445129,168.511841 181.276550,170.191330 
	C183.704712,172.915802 185.872025,175.435883 188.176880,178.236816 
	C189.214661,179.340927 190.114883,180.164185 191.265472,181.195892 
	C193.031067,183.248093 194.546295,185.091843 196.182602,187.248840 
	C197.874207,189.037247 199.444733,190.512390 201.215942,192.243195 
	C202.970474,194.310608 204.524292,196.122375 206.044815,198.397964 
	C205.953201,199.788635 205.894867,200.715515 205.836533,201.642380 
	C196.867081,195.114243 187.802994,188.710464 178.977173,181.993576 
	C175.688202,179.490540 174.021851,179.966797 172.228668,183.536453 
	C168.361115,191.235428 164.205139,198.789505 159.602310,206.680054 
	C158.116516,206.958054 157.195572,206.958847 156.274628,206.959641 
	C156.183548,205.573700 156.092453,204.187775 156.127686,202.104126 
	C156.137863,200.257095 156.021698,199.107773 155.905533,197.958450 
	C155.601746,193.267380 155.297958,188.576324 155.103180,183.180908 
	C155.120209,181.642105 155.028229,180.807617 154.936249,179.973145 
z"/>
<path fill="#79143C" opacity="1.000000" stroke="none" 
	d="
M216.476288,110.752533 
	C208.109467,100.937668 199.818207,90.749168 191.524124,80.562988 
	C190.579239,79.402542 189.671509,78.205894 188.656189,77.109711 
	C182.684082,70.661942 177.604645,70.673492 172.072678,77.627556 
	C163.168045,88.821320 154.478012,100.187500 145.821869,111.575523 
	C144.448029,113.382942 143.726105,115.685898 142.574829,118.158005 
	C142.897400,115.452553 142.329727,111.602875 143.966751,109.368439 
	C153.289688,96.643173 163.023560,84.211525 172.860428,71.873566 
	C177.313354,66.288460 183.682434,66.244690 188.215164,71.742935 
	C197.090103,82.508385 205.734406,93.466904 214.302917,104.478745 
	C215.538849,106.067108 215.825241,108.394295 216.476288,110.752533 
z"/>
<path fill="#7E133E" opacity="1.000000" stroke="none" 
	d="
M126.281914,126.684052 
	C125.982628,111.045952 126.043694,95.233650 126.007484,79.421570 
	C125.992828,73.023979 125.032692,72.009407 118.867439,71.981697 
	C103.721107,71.913612 88.574104,71.927452 73.427841,72.003220 
	C71.467155,72.013023 69.509277,72.582924 67.150665,73.061378 
	C64.134201,71.921326 61.517159,70.613266 58.900116,69.305214 
	C58.978634,68.940186 59.057156,68.575157 59.135674,68.210136 
	C60.508392,68.062523 61.880928,67.788414 63.253860,67.786369 
	C82.402687,67.757866 101.552887,67.888542 120.699539,67.682121 
	C125.610001,67.629181 127.603561,69.221130 127.551476,74.239738 
	C127.385628,90.222939 127.524216,106.209152 127.468407,122.193924 
	C127.463371,123.633583 126.904716,125.071312 126.281914,126.684052 
z"/>
<path fill="#7B143D" opacity="1.000000" stroke="none" 
	d="
M196.061523,186.935593 
	C194.546295,185.091843 193.031067,183.248093 191.121902,180.919968 
	C189.831757,179.609055 188.935547,178.782516 188.039337,177.955963 
	C185.872025,175.435883 183.704712,172.915802 181.144836,169.885925 
	C179.188873,167.895706 177.625458,166.415329 176.062042,164.934937 
	C174.223267,162.751373 172.384506,160.567810 170.141113,157.905975 
	C168.840454,156.600876 167.944412,155.774048 167.048370,154.947220 
	C164.853485,152.455536 162.658615,149.963867 160.110504,146.915451 
	C157.398087,144.272324 155.038879,142.185944 152.679672,140.099564 
	C152.573730,138.736450 152.467789,137.373322 152.361832,136.010208 
	C152.780411,135.810150 153.198990,135.610107 153.617569,135.410049 
	C176.266205,160.388504 198.914856,185.366959 221.563492,210.345413 
	C221.075333,210.939713 220.587158,211.533997 220.098999,212.128281 
	C217.872269,210.591782 215.645554,209.055298 213.133820,206.907837 
	C210.591904,203.509308 208.334991,200.721741 206.078094,197.934158 
	C204.524292,196.122375 202.970474,194.310608 201.084442,191.937637 
	C199.188660,189.896164 197.625092,188.415878 196.061523,186.935593 
z"/>
<path fill="#78133C" opacity="1.000000" stroke="none" 
	d="
M127.260910,154.764069 
	C126.404480,153.917648 125.638649,152.645447 124.720772,151.494492 
	C120.122345,145.728363 115.015076,146.062378 107.294289,152.783722 
	C107.492546,147.369858 110.568970,143.810181 115.517464,143.179611 
	C120.121666,142.592941 124.591354,145.399872 126.286934,150.076660 
	C126.786606,151.454865 126.959015,152.951721 127.260910,154.764069 
z"/>
<path fill="#78133C" opacity="1.000000" stroke="none" 
	d="
M145.350479,192.806610 
	C139.150543,187.815826 131.571991,183.436249 131.873169,173.327713 
	C133.572357,178.231384 136.606049,182.242508 141.130768,185.505859 
	C143.158325,186.968201 143.993225,190.084229 145.350479,192.806610 
z"/>
<path fill="#8E1646" opacity="1.000000" stroke="none" 
	d="
M206.044815,198.397964 
	C208.334991,200.721741 210.591904,203.509308 212.925568,206.646973 
	C210.738586,205.370132 208.474869,203.743195 206.023834,201.879318 
	C205.894867,200.715515 205.953201,199.788635 206.044815,198.397964 
z"/>
<path fill="#8E1646" opacity="1.000000" stroke="none" 
	d="
M152.635925,140.448822 
	C155.038879,142.185944 157.398087,144.272324 159.892487,146.667450 
	C157.939438,146.347076 155.851181,145.717957 153.395477,145.047638 
	C152.882751,143.603622 152.737473,142.200851 152.635925,140.448822 
z"/>
<path fill="#8E1646" opacity="1.000000" stroke="none" 
	d="
M156.223022,207.283997 
	C157.195572,206.958847 158.116516,206.958054 159.382629,206.958221 
	C159.145279,208.202332 158.562729,209.445480 157.980179,210.688644 
	C157.604462,210.686996 157.228760,210.685349 156.853043,210.683701 
	C156.625839,209.658585 156.398636,208.633453 156.223022,207.283997 
z"/>
<path fill="#8E1646" opacity="1.000000" stroke="none" 
	d="
M153.864929,161.329941 
	C154.038467,162.157288 154.152466,163.313644 154.173584,164.718536 
	C153.988922,163.864349 153.897141,162.761658 153.864929,161.329941 
z"/>
<path fill="#8E1646" opacity="1.000000" stroke="none" 
	d="
M155.837875,198.240265 
	C156.021698,199.107773 156.137863,200.257095 156.163208,201.688171 
	C155.971649,200.820633 155.870941,199.671356 155.837875,198.240265 
z"/>
<path fill="#78133C" opacity="1.000000" stroke="none" 
	d="
M131.427521,170.810471 
	C131.140945,170.271057 130.859131,169.414261 130.624100,168.327118 
	C130.924667,168.895538 131.178482,169.694321 131.427521,170.810471 
z"/>
<path fill="#8E1646" opacity="1.000000" stroke="none" 
	d="
M154.863815,180.217712 
	C155.028229,180.807617 155.120209,181.642105 155.141968,182.723785 
	C154.978287,182.134750 154.884827,181.298523 154.863815,180.217712 
z"/>
<path fill="#78133C" opacity="1.000000" stroke="none" 
	d="
M130.121948,165.872650 
	C129.915085,165.583633 129.727310,165.028809 129.575775,164.296707 
	C129.788361,164.615234 129.964691,165.111053 130.121948,165.872650 
z"/>
<path fill="#78133C" opacity="1.000000" stroke="none" 
	d="
M129.091309,161.852844 
	C128.814072,161.459152 128.557251,160.789948 128.287659,159.845306 
	C128.553848,160.239044 128.832794,160.908188 129.091309,161.852844 
z"/>
<path fill="#8E1646" opacity="1.000000" stroke="none" 
	d="
M176.183014,165.248291 
	C177.625458,166.415329 179.188873,167.895706 180.884003,169.681519 
	C179.445129,168.511841 177.874573,167.036743 176.183014,165.248291 
z"/>
<path fill="#8E1646" opacity="1.000000" stroke="none" 
	d="
M196.182602,187.248840 
	C197.625092,188.415878 199.188660,189.896164 200.883743,191.681976 
	C199.444733,190.512390 197.874207,189.037247 196.182602,187.248840 
z"/>
<path fill="#8E1646" opacity="1.000000" stroke="none" 
	d="
M188.176880,178.236816 
	C188.935547,178.782516 189.831757,179.609055 190.871552,180.711517 
	C190.114883,180.164185 189.214661,179.340927 188.176880,178.236816 
z"/>
<path fill="#8E1646" opacity="1.000000" stroke="none" 
	d="
M167.184875,155.228928 
	C167.944412,155.774048 168.840454,156.600876 169.881683,157.702545 
	C169.125046,157.155136 168.223221,156.332886 167.184875,155.228928 
z"/>
</svg>